<?xml version="1.0" encoding="UTF-8" standalone="no"?>
<!-- Generator: Adobe Illustrator 16.0.0, SVG Export Plug-In . SVG Version: 6.00 Build 0)  -->

<svg
   xmlns:dc="http://purl.org/dc/elements/1.1/"
   xmlns:cc="http://creativecommons.org/ns#"
   xmlns:rdf="http://www.w3.org/1999/02/22-rdf-syntax-ns#"
   xmlns:svg="http://www.w3.org/2000/svg"
   xmlns="http://www.w3.org/2000/svg"
   xmlns:sodipodi="http://sodipodi.sourceforge.net/DTD/sodipodi-0.dtd"
   xmlns:inkscape="http://www.inkscape.org/namespaces/inkscape"
   version="1.1"
   id="Capa_1"
   x="0px"
   y="0px"
   width="468.067px"
   height="468.067px"
   viewBox="0 0 468.067 468.067"
   style="enable-background:new 0 0 468.067 468.067;"
   xml:space="preserve"
   sodipodi:docname="close.svg"
   inkscape:version="0.92.4 (5da689c313, 2019-01-14)"><metadata
   id="metadata41"><rdf:RDF><cc:Work
       rdf:about=""><dc:format>image/svg+xml</dc:format><dc:type
         rdf:resource="http://purl.org/dc/dcmitype/StillImage" /></cc:Work></rdf:RDF></metadata><defs
   id="defs39" /><sodipodi:namedview
   pagecolor="#ffffff"
   bordercolor="#666666"
   borderopacity="1"
   objecttolerance="10"
   gridtolerance="10"
   guidetolerance="10"
   inkscape:pageopacity="0"
   inkscape:pageshadow="2"
   inkscape:window-width="1440"
   inkscape:window-height="837"
   id="namedview37"
   showgrid="false"
   inkscape:zoom="0.50420134"
   inkscape:cx="234.03349"
   inkscape:cy="234.03349"
   inkscape:window-x="-8"
   inkscape:window-y="-8"
   inkscape:window-maximized="1"
   inkscape:current-layer="g4" />
<g
   id="g4"
   style="fill:#000000;stroke:#000000">
	<path
   d="M431.38,0.228H36.685C16.458,0.228,0,16.671,0,36.9v394.269c0,20.215,16.458,36.671,36.685,36.671H431.38   c20.232,0,36.688-16.456,36.688-36.671V36.9C468.062,16.671,451.606,0.228,431.38,0.228z M406.519,41.972   c8.678,0,15.711,7.04,15.711,15.726c0,8.677-7.033,15.716-15.711,15.716c-8.688,0-15.723-7.039-15.723-15.716   C390.796,49.012,397.83,41.972,406.519,41.972z M350.189,41.972c8.688,0,15.723,7.04,15.723,15.726   c0,8.677-7.034,15.716-15.723,15.716c-8.684,0-15.711-7.039-15.711-15.716C334.479,49.012,341.513,41.972,350.189,41.972z    M426.143,425.927H41.919V112.432h384.224V425.927z M140.053,327.908l61.082-61.088l-61.082-61.088   c-9.085-9.084-9.085-23.817,0-32.896s23.803-9.079,32.891,0l61.087,61.09l61.093-61.084c9.091-9.079,23.809-9.079,32.888,0   c9.091,9.079,9.091,23.812,0,32.896l-61.081,61.082l61.081,61.088c9.079,9.085,9.079,23.82,0,32.899   c-4.539,4.539-10.497,6.809-16.443,6.809c-5.958,0-11.91-2.27-16.45-6.809l-61.087-61.094l-61.097,61.082   c-4.54,4.539-10.483,6.82-16.444,6.82c-5.943,0-11.904-2.281-16.443-6.82C130.968,351.717,130.968,336.993,140.053,327.908z"
   id="path2"
   style="fill:#ffffff;stroke:#000000" />
</g>
<g
   id="g6">
</g>
<g
   id="g8">
</g>
<g
   id="g10">
</g>
<g
   id="g12">
</g>
<g
   id="g14">
</g>
<g
   id="g16">
</g>
<g
   id="g18">
</g>
<g
   id="g20">
</g>
<g
   id="g22">
</g>
<g
   id="g24">
</g>
<g
   id="g26">
</g>
<g
   id="g28">
</g>
<g
   id="g30">
</g>
<g
   id="g32">
</g>
<g
   id="g34">
</g>
</svg>