<svg height="496pt" viewBox="0 0 496 496" width="496pt" xmlns="http://www.w3.org/2000/svg"><path d="m120 160c22.054688 0 40-17.945312 40-40s-17.945312-40-40-40-40 17.945312-40 40 17.945312 40 40 40zm0-64c13.230469 0 24 10.769531 24 24s-10.769531 24-24 24-24-10.769531-24-24 10.769531-24 24-24zm0 0"/><path d="m496 381.679688v-59.359376l-21.648438-7.550781c-2.429687-7.984375-5.609374-15.679687-9.503906-22.976562l9.96875-20.625-7.726562-7.726563c-3.578125-4.699218-9.449219-10.898437-13.890625-15.386718-5.527344-5.589844-11.902344-11.65625-16.230469-15.445313l-230.816406-201.855469c-22.664063-19.832031-51.726563-30.753906-81.839844-30.753906v.214844c-1.449219-.046875-2.855469-.214844-4.3125-.214844-66.167969 0-120 53.832031-120 120 0 1.457031.167969 2.863281.214844 4.304688h-.214844c0 30.121093 10.921875 59.175781 30.753906 81.839843l201.832032 230.640625c3.636718 4.152344 9.09375 9.933594 14.230468 15.109375 4.863282 4.890625 11.558594 11.335938 16.582032 15.167969l7.753906 7.753906 20.625-9.96875c7.292968 3.886719 14.992187 7.074219 22.976562 9.503906l7.550782 21.648438h59.359374l7.550782-21.648438c7.984375-2.429687 15.679687-5.609374 22.976562-9.503906l20.625 9.96875 41.984375-41.984375-9.96875-20.625c3.886719-7.296875 7.070313-14.992187 9.503907-22.976562zm-376-317.679688c30.871094 0 56 25.128906 56 56s-25.128906 56-56 56-56-25.128906-56-56 25.128906-56 56-56zm-88 56h16c0 39.703125 32.296875 72 72 72v16c-48.519531 0-88-39.472656-88-88zm197.175781 151.167969 9.96875 20.625c-3.886719 7.296875-7.074219 14.992187-9.503906 22.976562l-21.640625 7.550781v59.359376l21.648438 7.550781c2.429687 7.984375 5.609374 15.679687 9.503906 22.976562l-2.425782 5.015625-163.335937-186.648437c14.335937 6.066406 30.089844 9.425781 46.609375 9.425781 66.167969 0 120-53.832031 120-120 0-16.535156-3.359375-32.296875-9.433594-46.640625l186.761719 163.320313-5.113281 2.472656c-7.292969-3.886719-14.992188-7.074219-22.976563-9.503906l-7.550781-21.648438h-59.359375l-7.550781 21.648438c-7.984375 2.429687-15.679688 5.609374-22.976563 9.503906l-20.625-9.96875zm122.824219 160.832031c-44.113281 0-80-35.886719-80-80s35.886719-80 80-80 80 35.886719 80 80-35.886719 80-80 80zm0 0"/><path d="m128 120c0 4.417969-3.582031 8-8 8s-8-3.582031-8-8 3.582031-8 8-8 8 3.582031 8 8zm0 0"/><path d="m384 352c0 17.671875-14.328125 32-32 32s-32-14.328125-32-32 14.328125-32 32-32 32 14.328125 32 32zm0 0"/><path d="m352 288c-35.289062 0-64 28.710938-64 64s28.710938 64 64 64 64-28.710938 64-64-28.710938-64-64-64zm0 112c-26.472656 0-48-21.527344-48-48s21.527344-48 48-48 48 21.527344 48 48-21.527344 48-48 48zm0 0"/><path d="m390.742188 155.769531c1.167968-.441406 2.320312-.90625 3.449218-1.410156l19.054688 9.527344 22.625-22.621094-9.527344-19.058594c.511719-1.128906.96875-2.285156 1.410156-3.445312l20.246094-6.761719v-32l-20.238281-6.742188c-.441407-1.167968-.90625-2.320312-1.410157-3.449218l9.527344-19.054688-22.621094-22.625-19.066406 9.527344c-1.128906-.511719-2.289062-.96875-3.449218-1.410156l-6.742188-20.246094h-32l-6.742188 20.238281c-1.167968.441407-2.320312.90625-3.449218 1.410157l-19.066406-9.527344-22.621094 22.621094 9.527344 19.058593c-.511719 1.128907-.96875 2.289063-1.410157 3.445313l-20.238281 6.753906v1.070312l98.832031 86.433594zm-54.742188-59.769531c0-17.671875 14.328125-32 32-32s32 14.328125 32 32-14.328125 32-32 32-32-14.328125-32-32zm0 0"/><path d="m167.585938 386.808594-86.464844-98.808594h-1.121094l-6.742188 20.238281c-1.167968.441407-2.320312.90625-3.449218 1.410157l-19.054688-9.527344-22.632812 22.621094 9.527344 19.058593c-.511719 1.128907-.96875 2.289063-1.410157 3.445313l-20.238281 6.753906v32l20.238281 6.742188c.441407 1.167968.90625 2.320312 1.410157 3.449218l-9.527344 19.054688 22.621094 22.625 19.066406-9.527344c1.128906.511719 2.289062.96875 3.449218 1.410156l6.742188 20.246094h32l6.742188-20.238281c1.167968-.441407 2.320312-.90625 3.449218-1.410157l19.066406 9.527344 22.621094-22.621094-9.527344-19.058593c.511719-1.128907.96875-2.289063 1.410157-3.445313zm-71.585938 13.191406c-17.671875 0-32-14.328125-32-32s14.328125-32 32-32 32 14.328125 32 32-14.328125 32-32 32zm0 0"/></svg>