<svg id="icons" enable-background="new 0 0 64 64" height="512" viewBox="0 0 64 64" width="512" xmlns="http://www.w3.org/2000/svg"><path d="m50 1v21h-3v2l-6.01-2-11.99.01v-4-13.01-4z" fill="#5d9cec"/><path d="m29 5v13.01h-.01l-6.99-.01-5 2v-2h-3v-13h14.99z" fill="#e6e9ed"/><path d="m59 40.011v2.99c0 3.53-2.04 6.59-5 8.06-1.2.601-2.57.94-4 .94s-2.8-.34-4-.94c-2.96-1.47-5-4.529-5-8.06v-2.99z" fill="#eac6bb"/><path d="m55.997 40.011v2.99c0 3.53-2.04 6.59-5 8.06-.771.386-1.616.649-2.498.8.49.083.989.141 1.501.141 1.43 0 2.8-.34 4-.94 2.96-1.47 5-4.529 5-8.06v-2.99h-3.003z" fill="#d3b1a9"/><path d="m46 54c0 1.11 1.79 2 4 2 2.22 0 4.01-.89 4.01-2h2.99c2.76 0 5 2.23 5 5v2.99.01c-.01.56-.45.99-1 .99l-22 .01c-.56 0-1-.45-1-1v-3c0-2.77 2.23-5 5-5z" fill="#5d9cec"/><path d="m57 54h-2.99v.001c2.754.007 4.987 2.233 4.987 4.999v2.99.01c-.01.56-.45.99-1 .99h3.003c.55 0 .99-.431 1-.99v-.01-2.99c0-2.77-2.24-5-5-5z" fill="#4a89dc"/><path d="m50 35.001c1.1 0 2-.9 2-2.001 0-1.109-2-2.67-2-2.67s-2 1.561-2 2.67c0 1.101.89 2.001 2 2.001zm0-6.991c4.97 0 9 4.031 9 9.001v1.811l-.04.06c-1.2-.86-3.729-1.87-8.96-1.87-5.29 0-7.81 1.04-9 1.891v-1.891c0-4.971 4.03-9.002 9-9.002z" fill="#5d9cec"/><path d="m50 28.01c-.513 0-1.012.053-1.501.135 4.253.717 7.498 4.408 7.498 8.866v.614c1.433.359 2.363.826 2.963 1.256l.04-.06v-1.811c0-4.969-4.03-9-9-9z" fill="#4a89dc"/><path d="m54 54h.01c0 1.11-1.79 2-4.01 2-2.21 0-4-.89-4-2v-2.939c1.2.601 2.57.94 4 .94s2.8-.34 4-.94z" fill="#eac6bb"/><path d="m59 40.011h-18-1s.17-.51 1-1.109c1.19-.851 3.71-1.891 9-1.891 5.23 0 7.76 1.01 8.96 1.87.86.601 1.04 1.13 1.04 1.13z" fill="#656d78"/><path d="m52 33c0 1.101-.9 2.001-2 2.001-1.11 0-2-.9-2-2.001 0-1.109 2-2.67 2-2.67s2 1.561 2 2.67z" fill="#e6e9ed"/><path d="m26 39.001v19.999c0-2.77-2.24-5-5-5h-3v-2.939c2.96-1.47 5-4.529 5-8.06v-3.99-.01z" fill="#773e3e"/><path d="m5 43.001c0 3.54 2.03 6.6 5 8.06v2.939h-3c-2.77 0-5 2.23-5 5v-19.999h3z" fill="#773e3e"/><path d="m18 51.061v2.939l-.01.01-3.99 4.99-4-5v-2.939c1.21.601 2.56.94 4 .94 1.43 0 2.8-.34 4-.94z" fill="#eac6bb"/><path d="m26 61.99v.01c-.01.56-.45.99-1 .99l-22 .01c-.56 0-1-.45-1-1v-3c0-2.77 2.23-5 5-5h3l4 5 3.99-4.99.01-.01h3c2.76 0 5 2.23 5 5z" fill="#48cfad"/><path d="m21 54h-3c2.758.002 4.997 2.231 4.997 5v2.99.01c-.01.56-.45.99-1 .99h3.003c.55 0 .99-.431 1-.99v-.01-2.99c0-2.77-2.24-5-5-5z" fill="#37bc9b"/><path d="m6.01 39.001h4 4 4 4 .99v.01 3.99c0 3.53-2.04 6.59-5 8.06-1.2.601-2.57.94-4 .94-1.44 0-2.79-.34-4-.94-2.97-1.46-5-4.52-5-8.06v-4z" fill="#eac6bb"/><path d="m22.01 39.001h-2.013v.01 3.99c0 3.53-2.04 6.59-5 8.06-.771.386-1.617.649-2.5.8.49.083.988.141 1.503.141 1.43 0 2.8-.34 4-.94 2.96-1.47 5-4.529 5-8.06v-3.99-.01h-.99z" fill="#d3b1a9"/><path d="m10.01 39.001h-4-1.01-3c0-6.62 5.37-11.991 12-11.991 6.62 0 12 5.371 12 11.991h-3-.99-4-4z" fill="#965353"/><path d="m14 27.01c-.51 0-1.009.043-1.503.104 5.913.74 10.5 5.775 10.5 11.888h.003 3c0-6.621-5.38-11.992-12-11.992z" fill="#844747"/><path d="m38.999 17.003c-.553 0-1-.448-1-1v-5.997c0-.553.447-1 1-1s1 .447 1 1v5.997c0 .552-.447 1-1 1z" fill="#4a89dc"/><path d="m39.029 8.005c-.553 0-1.005-.448-1.005-1s.442-1 .994-1h.011c.552 0 1 .448 1 1s-.448 1-1 1z" fill="#4a89dc"/><g fill="#844747"><path d="m22.01 39.001h.99.016v-.999c0-.553-.447-1-1-1s-1 .447-1 1v.999z"/><path d="m18.01 39.001h.99.016v-.999c0-.553-.447-1-1-1s-1 .447-1 1v.999z"/><path d="m14.01 39.001h.99.016v-.999c0-.553-.447-1-1-1s-1 .447-1 1v.999z"/><path d="m10.01 39.001h.99.016v-.999c0-.553-.447-1-1-1s-1 .447-1 1v.999z"/><path d="m6.01 39.001h.99.016v-.999c0-.553-.447-1-1-1s-1 .447-1 1v.999z"/></g></svg>