<?xml version="1.0" encoding="iso-8859-1"?>
<!-- Generator: Adobe Illustrator 16.0.0, SVG Export Plug-In . SVG Version: 6.00 Build 0)  -->
<!DOCTYPE svg PUBLIC "-//W3C//DTD SVG 1.1//EN" "http://www.w3.org/Graphics/SVG/1.1/DTD/svg11.dtd">
<svg version="1.1" id="Capa_1" xmlns="http://www.w3.org/2000/svg" xmlns:xlink="http://www.w3.org/1999/xlink" x="0px" y="0px"
	 width="55.222px" height="55.222px" viewBox="0 0 55.222 55.222" style="enable-background:new 0 0 55.222 55.222;"
	 xml:space="preserve">
<g>
	<path d="M41.734,15.513c-0.049,0-0.035-0.134-0.017-0.303c0.011-0.101,0.017-0.203,0.017-0.308v-0.584c0-1.657-1.344-3-3-3h-0.479
		c-1.657,0-3-1.343-3-3V5.611c0-1.656-1.343-3-3-3h-9.292c-1.657,0-3,1.344-3,3v2.708c0,1.657-1.343,3-3,3h-0.478
		c-1.657,0-3,1.343-3,3v0.584c0,0.104,0.005,0.206,0.016,0.308c0.018,0.169,0.033,0.303,0.016,0.303c-0.031,0-10.518,0-10.518,0
		c-1.657,0-3,1.344-3,3v31.097c0,1.656,1.343,3,3,3h49.222c1.657,0,3-1.344,3-3V18.513c0-1.656-1.343-3-3-3H41.734z M27.61,6.308
		c2.181,0,3.948,1.768,3.948,3.949c0,2.18-1.768,3.947-3.948,3.947c-2.181,0-3.948-1.768-3.948-3.947
		C23.662,8.076,25.429,6.308,27.61,6.308z M50.65,45.121c0,1.502-1.217,2.719-2.72,2.719H7.289c-1.502,0-2.719-1.217-2.719-2.719
		V23.995c0-1.501,1.217-2.719,2.719-2.719h40.643c1.502,0,2.719,1.218,2.719,2.719V45.121L50.65,45.121z"/>
	<path d="M43.734,26.741h-32.75c-0.827,0-1.5,0.673-1.5,1.5s0.673,1.5,1.5,1.5h32.75c0.828,0,1.5-0.673,1.5-1.5
		S44.562,26.741,43.734,26.741z"/>
	<path d="M43.734,33.741h-32.75c-0.827,0-1.5,0.673-1.5,1.5s0.673,1.5,1.5,1.5h32.75c0.828,0,1.5-0.673,1.5-1.5
		S44.562,33.741,43.734,33.741z"/>
	<path d="M38.109,40.741h-21.5c-0.827,0-1.5,0.673-1.5,1.5s0.673,1.5,1.5,1.5h21.5c0.828,0,1.5-0.673,1.5-1.5
		S38.938,40.741,38.109,40.741z"/>
</g>
<g>
</g>
<g>
</g>
<g>
</g>
<g>
</g>
<g>
</g>
<g>
</g>
<g>
</g>
<g>
</g>
<g>
</g>
<g>
</g>
<g>
</g>
<g>
</g>
<g>
</g>
<g>
</g>
<g>
</g>
</svg>
