<?xml version="1.0" encoding="UTF-8" standalone="no"?>
<!-- Generator: Adobe Illustrator 19.0.0, SVG Export Plug-In . SVG Version: 6.00 Build 0)  -->

<svg
   xmlns:dc="http://purl.org/dc/elements/1.1/"
   xmlns:cc="http://creativecommons.org/ns#"
   xmlns:rdf="http://www.w3.org/1999/02/22-rdf-syntax-ns#"
   xmlns:svg="http://www.w3.org/2000/svg"
   xmlns="http://www.w3.org/2000/svg"
   xmlns:sodipodi="http://sodipodi.sourceforge.net/DTD/sodipodi-0.dtd"
   xmlns:inkscape="http://www.inkscape.org/namespaces/inkscape"
   version="1.1"
   id="Capa_1"
   x="0px"
   y="0px"
   viewBox="0 0 16 16"
   xml:space="preserve"
   sodipodi:docname="key.svg"
   width="16"
   height="16"
   inkscape:version="0.92.4 (5da689c313, 2019-01-14)"><metadata
   id="metadata43"><rdf:RDF><cc:Work
       rdf:about=""><dc:format>image/svg+xml</dc:format><dc:type
         rdf:resource="http://purl.org/dc/dcmitype/StillImage" /><dc:title></dc:title></cc:Work></rdf:RDF></metadata><defs
   id="defs41" /><sodipodi:namedview
   pagecolor="#ffffff"
   bordercolor="#666666"
   borderopacity="1"
   objecttolerance="10"
   gridtolerance="10"
   guidetolerance="10"
   inkscape:pageopacity="0"
   inkscape:pageshadow="2"
   inkscape:window-width="1440"
   inkscape:window-height="877"
   id="namedview39"
   showgrid="false"
   inkscape:zoom="10.429825"
   inkscape:cx="19.294449"
   inkscape:cy="13.458414"
   inkscape:window-x="-8"
   inkscape:window-y="-8"
   inkscape:window-maximized="1"
   inkscape:current-layer="Capa_1" />
<g
   id="g6"
   transform="matrix(0.03045964,0,0,0.03045964,0.45964318,-0.14432034)"
   style="fill:#999999">
	<g
   id="g4"
   style="fill:#999999">
		<path
   d="M 463.748,48.251 C 399.412,-16.085 294.735,-16.084 230.399,48.252 186.454,92.197 171.19,156.958 190.218,215.713 L 4.396,401.536 c -2.813,2.813 -4.395,6.621 -4.395,10.606 V 497 c 0,8.291 6.709,15 15,15 h 84.858 c 3.984,0 7.793,-1.582 10.605,-4.395 l 21.211,-21.226 c 3.237,-3.237 4.819,-7.778 4.292,-12.334 l -2.637,-22.793 31.582,-2.974 c 7.178,-0.674 12.847,-6.343 13.521,-13.521 l 2.974,-31.582 22.793,2.651 c 4.233,0.571 8.496,-0.85 11.704,-3.691 3.193,-2.856 5.024,-6.929 5.024,-11.206 V 363 h 27.422 c 3.984,0 7.793,-1.582 10.605,-4.395 l 38.467,-37.958 c 58.74,19.043 122.381,4.929 166.326,-39.046 64.336,-64.335 64.336,-169.014 0,-233.35 z m -42.435,106.07 c -17.549,17.549 -46.084,17.549 -63.633,0 -17.549,-17.549 -17.549,-46.084 0,-63.633 17.549,-17.549 46.084,-17.549 63.633,0 17.549,17.549 17.548,46.084 0,63.633 z"
   id="path2"
   inkscape:connector-curvature="0"
   style="fill:#999999" />
	</g>
</g>
<g
   id="g8"
   transform="translate(0,-496)">
</g>
<g
   id="g10"
   transform="translate(0,-496)">
</g>
<g
   id="g12"
   transform="translate(0,-496)">
</g>
<g
   id="g14"
   transform="translate(0,-496)">
</g>
<g
   id="g16"
   transform="translate(0,-496)">
</g>
<g
   id="g18"
   transform="translate(0,-496)">
</g>
<g
   id="g20"
   transform="translate(0,-496)">
</g>
<g
   id="g22"
   transform="translate(0,-496)">
</g>
<g
   id="g24"
   transform="translate(0,-496)">
</g>
<g
   id="g26"
   transform="translate(0,-496)">
</g>
<g
   id="g28"
   transform="translate(0,-496)">
</g>
<g
   id="g30"
   transform="translate(0,-496)">
</g>
<g
   id="g32"
   transform="translate(0,-496)">
</g>
<g
   id="g34"
   transform="translate(0,-496)">
</g>
<g
   id="g36"
   transform="translate(0,-496)">
</g>
</svg>