<?xml version="1.0" encoding="UTF-8" standalone="no"?>
<!-- Generator: Adobe Illustrator 19.0.0, SVG Export Plug-In . SVG Version: 6.00 Build 0)  -->

<svg
   xmlns:dc="http://purl.org/dc/elements/1.1/"
   xmlns:cc="http://creativecommons.org/ns#"
   xmlns:rdf="http://www.w3.org/1999/02/22-rdf-syntax-ns#"
   xmlns:svg="http://www.w3.org/2000/svg"
   xmlns="http://www.w3.org/2000/svg"
   xmlns:sodipodi="http://sodipodi.sourceforge.net/DTD/sodipodi-0.dtd"
   xmlns:inkscape="http://www.inkscape.org/namespaces/inkscape"
   version="1.1"
   id="Layer_1"
   x="0px"
   y="0px"
   viewBox="0 0 230 226"
   xml:space="preserve"
   sodipodi:docname="login.svg"
   inkscape:version="0.92.4 (5da689c313, 2019-01-14)"
   width="230"
   height="226"><metadata
   id="metadata69"><rdf:RDF><cc:Work
       rdf:about=""><dc:format>image/svg+xml</dc:format><dc:type
         rdf:resource="http://purl.org/dc/dcmitype/StillImage" /><dc:title></dc:title></cc:Work></rdf:RDF></metadata><defs
   id="defs67" /><sodipodi:namedview
   pagecolor="#ffffff"
   bordercolor="#666666"
   borderopacity="1"
   objecttolerance="10"
   gridtolerance="10"
   guidetolerance="10"
   inkscape:pageopacity="0"
   inkscape:pageshadow="2"
   inkscape:window-width="1440"
   inkscape:window-height="877"
   id="namedview65"
   showgrid="false"
   inkscape:zoom="0.46456693"
   inkscape:cx="254"
   inkscape:cy="254"
   inkscape:window-x="-8"
   inkscape:window-y="-8"
   inkscape:window-maximized="1"
   inkscape:current-layer="Layer_1" />








<g
   id="g893"
   transform="translate(2.4576271,310.13559)"><circle
     id="circle2"
     r="111.93221"
     cy="-196.06778"
     cx="111.93221"
     style="fill:#fd8469;stroke-width:0.44067797" /><g
     transform="matrix(0.44067797,0,0,0.44067797,0,-308)"
     id="g8">
	<path
   inkscape:connector-curvature="0"
   id="path4"
   d="m 255.2,362.8 c -0.4,0 -0.8,0.4 -1.2,0.4 -0.4,0 -0.8,-0.4 -1.2,-0.4 z"
   style="fill:#84dbff" />
	<path
   inkscape:connector-curvature="0"
   id="path6"
   d="m 451.2,414 c -46.4,57.2 -117.6,94 -197.2,94 -79.6,0 -150.8,-36.8 -197.2,-94 33.2,-44.4 84,-66.4 125.6,-77.2 -3.2,26.4 10.4,61.6 10.8,60.8 14,-32 60.8,-34.8 60.8,-34.8 0,0 46.8,2.8 60.4,34.8 0.4,0.8 14.4,-34.4 10.8,-60.8 42,10.8 93.2,32.8 126,77.2 z"
   style="fill:#84dbff" />
</g><path
     inkscape:connector-curvature="0"
     id="path10"
     d="m 137.13898,-170.50847 c 0,0 0,0 0,0.17627 0,1.76271 -0.88135,13.04406 -24.67796,22.03389 h -1.05763 c -23.79661,-8.98983 -24.677966,-20.27118 -24.677966,-22.03389 0,-0.17627 0,-0.17627 0,-0.17627 0,-2.29153 0.528813,-4.58306 1.057627,-6.87458 6.874576,8.63729 15.159319,14.45424 24.149149,14.45424 8.98983,0 17.27458,-5.81695 24.14916,-14.45424 0.52881,2.29152 1.05762,4.58305 1.05762,6.87458 z"
     style="fill:#ffffff;stroke-width:0.44067797" /><g
     transform="matrix(0.44067797,0,0,0.44067797,0,-308)"
     id="g16">
	<path
   inkscape:connector-curvature="0"
   id="path12"
   d="m 311.2,312 c 0,0 2.8,28.8 -57.2,51.2 0,0 46.8,2.8 60.4,34.8 0.8,0.8 27.6,-68.8 -3.2,-86 z"
   style="fill:#54c0eb" />
	<path
   inkscape:connector-curvature="0"
   id="path14"
   d="m 196.8,312 c -30.8,17.2 -4,86.8 -3.2,85.6 14,-32 60.4,-34.8 60.4,-34.8 -60,-22 -57.2,-50.8 -57.2,-50.8 z"
   style="fill:#54c0eb" />
</g><g
     transform="matrix(0.44067797,0,0,0.44067797,0,-308)"
     id="g24">
	<path
   inkscape:connector-curvature="0"
   id="path18"
   d="m 338,210.8 c -3.6,24.8 -14.4,48 -32.4,65.6 -3.6,3.6 -6.8,6.4 -10.8,9.2 l -6.4,-20.4 h -68.8 l -6.4,20.4 C 200.4,276 173.6,249.2 173.2,224 162,80.4 272,110.8 272,110.8 c 74,-5.2 71.6,60 66,100 z"
   style="fill:#ffffff" />
	<path
   inkscape:connector-curvature="0"
   id="path20"
   d="m 352.8,236.8 c -5.6,9.2 -13.2,15.6 -20.4,18 2.8,-6.4 5.2,-13.2 7.2,-20 0,0 0,0 0,-0.4 1.6,-6 3.2,-12 4.8,-18 H 344 c 1.6,-6 3.2,-12 4.4,-18 1.6,0 3.2,0.8 4.8,1.6 8.8,5.6 8.4,22 -0.4,36.8 z"
   style="fill:#ffffff" />
	<path
   inkscape:connector-curvature="0"
   id="path22"
   d="m 175.6,254.8 c -7.2,-2.4 -14.8,-8.8 -20.4,-18 -9.2,-14.8 -9.2,-31.2 -0.4,-36.4 0.8,-0.4 1.2,-0.8 2,-0.8 4.8,18.8 10.4,32.8 11.6,35.6 2,6.4 4.4,13.2 7.2,19.6 z"
   style="fill:#ffffff" />
</g><path
     inkscape:connector-curvature="0"
     d="m 131.14576,-276.8 c 1.41017,-16.21695 -24.32542,-15.15932 -24.32542,-15.15932 -38.955933,5.64068 -43.186442,41.95254 -43.186442,41.95254 l 5.288136,-6.34576 c -8.284746,18.15593 4.230508,49.35593 5.288135,51.82373 6.522034,21.68135 20.976272,41.6 37.722031,41.6 16.74577,0 31.2,-19.91865 37.72204,-41.6 v 0 c 0,0 0,0 0,-0.17627 0.70508,-2.64407 1.41017,-5.28814 1.93898,-7.93221 h -0.17627 c 3.52542,-14.10169 7.40339,-28.37966 7.40339,-28.37966 C 168.8678,-291.60678 131.14576,-276.8 131.14576,-276.8 Z m 17.80339,61.69491 c -1.58644,10.92882 -6.34576,21.15255 -14.27796,28.90848 -1.58644,1.58644 -3.17288,2.82034 -4.75933,4.05424 l -2.82033,-8.81356 H 96.772881 l -2.820339,8.98983 c -5.640678,-4.23051 -10.4,-10.04746 -14.277966,-16.74576 -1.762712,-3.52543 -2.820339,-7.22712 -3.349152,-10.4 -4.935593,-63.28136 43.538986,-49.88475 43.538986,-49.88475 32.61017,-2.4678 31.55254,26.26441 29.08474,43.89152 z"
     style="fill:#324a5e;stroke-width:0.44067797"
     id="SVGCleanerId_0" /><g
     transform="matrix(0.44067797,0,0,0.44067797,0,-308)"
     id="g28">
	<path
   inkscape:connector-curvature="0"
   d="M 297.6,70.8 C 300.8,34 242.4,36.4 242.4,36.4 c -88.4,12.8 -98,95.2 -98,95.2 l 12,-14.4 c -18.8,41.2 9.6,112 12,117.6 14.8,49.2 47.6,94.4 85.6,94.4 38,0 70.8,-45.2 85.6,-94.4 v 0 c 0,0 0,0 0,-0.4 1.6,-6 3.2,-12 4.4,-18 h -0.4 c 8,-32 16.8,-64.4 16.8,-64.4 C 383.2,37.2 297.6,70.8 297.6,70.8 Z m 40.4,140 c -3.6,24.8 -14.4,48 -32.4,65.6 -3.6,3.6 -7.2,6.4 -10.8,9.2 l -6.4,-20 h -68.8 l -6.4,20.4 c -12.8,-9.6 -23.6,-22.8 -32.4,-38 -4,-8 -6.4,-16.4 -7.6,-23.6 C 162,80.8 272,111.2 272,111.2 c 74,-5.6 71.6,59.6 66,99.6 z"
   style="fill:#324a5e"
   id="SVGCleanerId_0_1_" />
</g><path
     inkscape:connector-curvature="0"
     id="path30"
     d="m 131.14576,-276.8 c 1.41017,-16.21695 -24.32542,-15.15932 -24.32542,-15.15932 -38.955933,5.64068 -43.186442,41.95254 -43.186442,41.95254 l 5.288136,-6.34576 c -8.284746,18.15593 4.230508,49.35593 5.288135,51.82373 6.522034,21.68135 20.976272,41.6 37.722031,41.6 16.74577,0 31.2,-19.91865 37.72204,-41.6 v 0 c 0,0 0,0 0,-0.17627 0.70508,-2.64407 1.41017,-5.28814 1.93898,-7.93221 h -0.17627 c 3.52542,-14.10169 7.40339,-28.37966 7.40339,-28.37966 C 168.8678,-291.60678 131.14576,-276.8 131.14576,-276.8 Z m 17.80339,61.69491 c -1.58644,10.92882 -6.34576,21.15255 -14.27796,28.90848 -1.58644,1.58644 -3.17288,2.82034 -4.75933,4.05424 l -2.82033,-8.81356 H 96.772881 l -2.820339,8.98983 c -5.640678,-4.23051 -17.450847,-16.04068 -17.627118,-27.14576 -4.935593,-63.28136 43.538986,-49.88475 43.538986,-49.88475 32.61017,-2.4678 31.55254,26.26441 29.08474,43.89152 z"
     style="fill:#324a5e;stroke-width:0.44067797" /><path
     inkscape:connector-curvature="0"
     id="path32"
     d="m 99.59322,-184.96271 c 2.99661,3.34915 7.40339,5.64068 12.33898,5.64068 4.9356,0 9.34238,-2.11526 12.33899,-5.64068 z"
     style="fill:#ffffff;stroke-width:0.44067797" /></g>
<g
   id="g34"
   transform="translate(0,-282)">
</g>
<g
   id="g36"
   transform="translate(0,-282)">
</g>
<g
   id="g38"
   transform="translate(0,-282)">
</g>
<g
   id="g40"
   transform="translate(0,-282)">
</g>
<g
   id="g42"
   transform="translate(0,-282)">
</g>
<g
   id="g44"
   transform="translate(0,-282)">
</g>
<g
   id="g46"
   transform="translate(0,-282)">
</g>
<g
   id="g48"
   transform="translate(0,-282)">
</g>
<g
   id="g50"
   transform="translate(0,-282)">
</g>
<g
   id="g52"
   transform="translate(0,-282)">
</g>
<g
   id="g54"
   transform="translate(0,-282)">
</g>
<g
   id="g56"
   transform="translate(0,-282)">
</g>
<g
   id="g58"
   transform="translate(0,-282)">
</g>
<g
   id="g60"
   transform="translate(0,-282)">
</g>
<g
   id="g62"
   transform="translate(0,-282)">
</g>
</svg>