<?xml version="1.0" encoding="UTF-8" standalone="no"?>
<!-- Generator: Adobe Illustrator 18.1.1, SVG Export Plug-In . SVG Version: 6.00 Build 0)  -->

<svg
   xmlns:dc="http://purl.org/dc/elements/1.1/"
   xmlns:cc="http://creativecommons.org/ns#"
   xmlns:rdf="http://www.w3.org/1999/02/22-rdf-syntax-ns#"
   xmlns:svg="http://www.w3.org/2000/svg"
   xmlns="http://www.w3.org/2000/svg"
   xmlns:sodipodi="http://sodipodi.sourceforge.net/DTD/sodipodi-0.dtd"
   xmlns:inkscape="http://www.inkscape.org/namespaces/inkscape"
   version="1.1"
   id="Capa_1"
   x="0px"
   y="0px"
   viewBox="0 0 24.684 24.684"
   style="enable-background:new 0 0 24.684 24.684;"
   xml:space="preserve"
   sodipodi:docname="minimizi.svg"
   inkscape:version="0.92.4 (5da689c313, 2019-01-14)"><metadata
   id="metadata73"><rdf:RDF><cc:Work
       rdf:about=""><dc:format>image/svg+xml</dc:format><dc:type
         rdf:resource="http://purl.org/dc/dcmitype/StillImage" /></cc:Work></rdf:RDF></metadata><defs
   id="defs71" /><sodipodi:namedview
   pagecolor="#ffffff"
   bordercolor="#666666"
   borderopacity="1"
   objecttolerance="10"
   gridtolerance="10"
   guidetolerance="10"
   inkscape:pageopacity="0"
   inkscape:pageshadow="2"
   inkscape:window-width="1440"
   inkscape:window-height="837"
   id="namedview69"
   showgrid="false"
   inkscape:zoom="9.5608491"
   inkscape:cx="12.342"
   inkscape:cy="12.342"
   inkscape:window-x="-8"
   inkscape:window-y="-8"
   inkscape:window-maximized="1"
   inkscape:current-layer="Capa_1" />
<g
   id="g36"
   style="fill:#ffffff">
	<path
   d="M21.276,2.17V0.416C21.276,0.189,21.088,0,20.858,0H0.418C0.188,0,0,0.189,0,0.416v20.441c0,0.234,0.188,0.418,0.418,0.418   h1.751c0.231,0,0.419-0.184,0.419-0.418V2.588h18.27C21.088,2.588,21.276,2.402,21.276,2.17z"
   id="path2"
   style="fill:#ffffff" />
	<path
   d="M24.266,3.406H3.824c-0.229,0-0.418,0.188-0.418,0.42v20.438c0,0.232,0.189,0.42,0.418,0.42h20.442   c0.23,0,0.418-0.188,0.418-0.42V3.826C24.684,3.594,24.497,3.406,24.266,3.406z M17.979,18.818l-6.943-0.615   c-0.508-0.045-0.629-0.377-0.268-0.734l1.664-1.666c0.178-0.184,0.418-0.416,0.654-0.654L9.54,11.604   c-0.361-0.361-0.361-0.951,0-1.311l0.758-0.756c0.359-0.359,0.947-0.359,1.305,0l3.549,3.545c0.234-0.238,0.473-0.475,0.654-0.654   l1.662-1.662c0.361-0.361,0.689-0.24,0.736,0.264l0.615,6.947C18.866,18.484,18.489,18.863,17.979,18.818z"
   id="path4"
   style="fill:#ffffff" />
	<g
   id="g6"
   style="fill:#ffffff">
	</g>
	<g
   id="g8"
   style="fill:#ffffff">
	</g>
	<g
   id="g10"
   style="fill:#ffffff">
	</g>
	<g
   id="g12"
   style="fill:#ffffff">
	</g>
	<g
   id="g14"
   style="fill:#ffffff">
	</g>
	<g
   id="g16"
   style="fill:#ffffff">
	</g>
	<g
   id="g18"
   style="fill:#ffffff">
	</g>
	<g
   id="g20"
   style="fill:#ffffff">
	</g>
	<g
   id="g22"
   style="fill:#ffffff">
	</g>
	<g
   id="g24"
   style="fill:#ffffff">
	</g>
	<g
   id="g26"
   style="fill:#ffffff">
	</g>
	<g
   id="g28"
   style="fill:#ffffff">
	</g>
	<g
   id="g30"
   style="fill:#ffffff">
	</g>
	<g
   id="g32"
   style="fill:#ffffff">
	</g>
	<g
   id="g34"
   style="fill:#ffffff">
	</g>
</g>
<g
   id="g38">
</g>
<g
   id="g40">
</g>
<g
   id="g42">
</g>
<g
   id="g44">
</g>
<g
   id="g46">
</g>
<g
   id="g48">
</g>
<g
   id="g50">
</g>
<g
   id="g52">
</g>
<g
   id="g54">
</g>
<g
   id="g56">
</g>
<g
   id="g58">
</g>
<g
   id="g60">
</g>
<g
   id="g62">
</g>
<g
   id="g64">
</g>
<g
   id="g66">
</g>
</svg>