<?xml version="1.0" encoding="iso-8859-1"?>
<!-- Generator: Adobe Illustrator 19.0.0, SVG Export Plug-In . SVG Version: 6.00 Build 0)  -->
<svg version="1.1" id="Capa_1" xmlns="http://www.w3.org/2000/svg" xmlns:xlink="http://www.w3.org/1999/xlink" x="0px" y="0px"
	 viewBox="0 0 479.663 479.663" style="enable-background:new 0 0 479.663 479.663;" xml:space="preserve">
<path style="fill:#F0B77D;" d="M423.785,227.544c-12.919-6.46-28.634-1.638-35.707,10.956l-24.53,43.675
	c-4.912,5.828-11.419,10.096-18.721,12.281l-108.98,32.599c-9.06,2.652-18.555-2.542-21.207-11.602
	c-0.1-0.341-0.189-0.685-0.267-1.032c-2.199-9.082,3.151-18.283,12.132-20.863l49.198-15.103
	c9.278-2.596,14.976-11.917,13.057-21.358c-2.293-9.51-11.862-15.36-21.372-13.066c-0.312,0.075-0.621,0.159-0.928,0.251
	l-105.794,31.731c-34.64,9.46-62.478,35.239-74.567,69.051l-45.19,126.393l103.803,0.206l5.454-26.205
	c2.298-14.024,12.143-25.637,25.602-30.199l208.77-68.566c5.257-1.727,9.673-5.366,12.372-10.197l38.621-71.936
	c7.071-13.172,2.126-29.582-11.045-36.653C424.253,227.782,424.02,227.661,423.785,227.544L423.785,227.544z"/>
<path style="fill:#65CECC;" d="M344.037,123.778c0.899-7.822,0.899-15.721,0-23.543l-19.006-8.387
	c-1.083-4.861-2.57-9.622-4.447-14.234l10.473-18.066c-3.829-6.833-8.401-13.222-13.634-19.05l-20.11,4.606
	c-3.677-3.234-7.622-6.152-11.791-8.722l-1.923-21.018c-6.99-3.276-14.331-5.744-21.88-7.357l-13.706,15.902
	c-2.413-0.206-4.836-0.376-7.301-0.376s-4.888,0.171-7.301,0.376L219.705,8.007c-7.549,1.612-14.89,4.08-21.88,7.356l-1.923,21.018
	c-4.169,2.57-8.113,5.487-11.791,8.721l-20.11-4.606c-5.233,5.828-9.806,12.217-13.634,19.05l10.473,18.066
	c-1.877,4.613-3.365,9.374-4.447,14.235l-19.007,8.388c-0.899,7.822-0.899,15.721,0,23.543l19.006,8.387
	c1.083,4.861,2.57,9.622,4.447,14.234l-10.473,18.066c3.828,6.833,8.401,13.222,13.634,19.05l20.11-4.606
	c3.677,3.234,7.622,6.152,11.791,8.721l1.923,21.017c6.99,3.276,14.331,5.745,21.88,7.358l13.706-15.902
	c2.413,0.206,4.836,0.376,7.301,0.376s4.888-0.171,7.301-0.376l13.705,15.902c7.549-1.613,14.89-4.081,21.88-7.357l1.923-21.017
	c4.169-2.569,8.113-5.487,11.791-8.721l20.11,4.606c5.233-5.828,9.805-12.217,13.634-19.05l-10.473-18.066
	c1.877-4.613,3.365-9.374,4.447-14.235L344.037,123.778z"/>
<path style="fill:#DE2F55;" d="M281.888,86.75c-9.14-8.991-23.802-8.991-32.942,0l-8.236,8.14l-8.236-8.14
	c-9.14-8.991-23.802-8.991-32.942,0c-8.991,8.842-9.111,23.299-0.269,32.29c0.089,0.09,0.178,0.18,0.269,0.269l8.235,8.139
	l32.942,32.559l32.942-32.559l8.235-8.139c8.991-8.842,9.111-23.299,0.269-32.29C282.068,86.929,281.979,86.839,281.888,86.75z"/>
<path d="M240.711,168.007c-2.107,0.001-4.128-0.83-5.625-2.312l-41.176-40.696c-12.133-11.947-12.284-31.468-0.336-43.601
	c0.111-0.113,0.223-0.225,0.336-0.336c12.267-12.047,31.924-12.047,44.191,0l2.609,2.578l2.609-2.578
	c12.267-12.047,31.924-12.047,44.191,0c12.133,11.947,12.284,31.468,0.336,43.601c-0.111,0.113-0.223,0.225-0.336,0.336
	l-41.176,40.695C244.839,167.177,242.818,168.008,240.711,168.007L240.711,168.007z M216.004,88.007
	c-4.057-0.011-7.955,1.581-10.844,4.43c-5.851,5.737-5.943,15.131-0.206,20.981c0.068,0.069,0.137,0.138,0.206,0.206l35.551,35.133
	l35.551-35.133c5.851-5.737,5.943-15.131,0.206-20.981c-0.068-0.069-0.137-0.138-0.206-0.206c-6.026-5.902-15.665-5.902-21.691,0
	l-8.234,8.141c-3.118,3.078-8.132,3.078-11.25,0l-8.234-8.141C223.961,89.587,220.063,87.995,216.004,88.007L216.004,88.007z"/>
<path d="M262.125,224.007c-2.323-0.001-4.53-1.01-6.051-2.766l-11.359-13.141h-7.332l-11.36,13.141
	c-1.903,2.195-4.844,3.187-7.687,2.594c-8.166-1.736-16.108-4.396-23.672-7.93c-2.59-1.196-4.345-3.683-4.605-6.523l-1.574-17.141
	c-2.18-1.469-4.285-3.018-6.316-4.648l-16.305,3.719c-2.832,0.666-5.801-0.276-7.73-2.453c-5.636-6.265-10.566-13.132-14.699-20.477
	c-1.387-2.47-1.363-5.49,0.062-7.938l8.574-14.742c-0.891-2.469-1.691-5.031-2.414-7.734l-16.07-6.82
	c-2.956-1.256-4.875-4.156-4.875-7.367v-23.547c0-3.211,1.919-6.112,4.875-7.367l16.07-6.82c0.723-2.703,1.523-5.266,2.414-7.734
	l-8.574-14.742c-1.425-2.445-1.45-5.461-0.066-7.93c4.131-7.351,9.065-14.221,14.711-20.484c1.931-2.172,4.896-3.113,7.727-2.453
	l16.301,3.719c2.02-1.625,4.125-3.175,6.316-4.648l1.574-17.141c0.26-2.841,2.016-5.327,4.605-6.523
	c7.566-3.534,15.511-6.195,23.68-7.93c2.843-0.609,5.791,0.387,7.684,2.594l11.355,13.133h7.336l11.355-13.133
	c1.891-2.212,4.843-3.208,7.688-2.594c8.166,1.736,16.108,4.396,23.672,7.93c2.59,1.196,4.345,3.683,4.606,6.523l1.574,17.141
	c2.18,1.469,4.285,3.018,6.316,4.648l16.305-3.719c2.831-0.661,5.796,0.28,7.727,2.453c5.643,6.265,10.575,13.135,14.707,20.484
	c1.384,2.468,1.358,5.485-0.066,7.93l-8.574,14.742c0.898,2.484,1.707,5.07,2.434,7.797l15.469,6.805
	c2.905,1.275,4.782,4.147,4.781,7.32v23.547c0.001,3.173-1.876,6.045-4.781,7.32l-15.473,6.805c-0.727,2.727-1.531,5.313-2.43,7.797
	l8.574,14.742c1.425,2.445,1.45,5.461,0.066,7.93c-4.131,7.351-9.065,14.221-14.711,20.484c-1.929,2.176-4.896,3.118-7.727,2.453
	L299.93,187.6c-2.02,1.617-4.125,3.164-6.316,4.641l-1.574,17.141c-0.26,2.841-2.016,5.327-4.606,6.523
	c-7.564,3.533-15.506,6.194-23.672,7.93C263.224,223.95,262.675,224.007,262.125,224.007L262.125,224.007z M233.723,192.101h14.652
	c2.323-0.001,4.531,1.008,6.051,2.766l10.578,12.234c3.925-1.046,7.778-2.345,11.535-3.891l1.5-16.312
	c0.23-2.506,1.626-4.758,3.77-6.078c3.796-2.331,7.388-4.978,10.738-7.914c1.925-1.706,4.557-2.373,7.062-1.789l15.473,3.523
	c2.658-3.242,5.107-6.65,7.332-10.203l-8.148-14.016c-1.258-2.161-1.433-4.785-0.473-7.094c1.715-4.195,3.07-8.529,4.051-12.953
	c0.566-2.464,2.264-4.515,4.578-5.531l14.289-6.281v-13.109l-14.285-6.281c-2.315-1.017-4.012-3.068-4.578-5.531
	c-0.983-4.424-2.34-8.758-4.055-12.953c-0.96-2.308-0.785-4.933,0.473-7.094l8.148-14.016c-2.223-3.553-4.671-6.961-7.328-10.203
	l-15.473,3.523c-2.502,0.585-5.133-0.082-7.054-1.789c-3.356-2.933-6.952-5.58-10.75-7.914c-2.144-1.319-3.54-3.572-3.77-6.078
	l-1.5-16.312c-3.758-1.544-7.611-2.846-11.535-3.898L254.426,29.14c-1.519,1.757-3.728,2.767-6.051,2.766h-14.652
	c-2.323,0.001-4.531-1.008-6.051-2.766l-10.574-12.234c-3.926,1.052-7.78,2.354-11.539,3.898l-1.5,16.312
	c-0.231,2.506-1.628,4.757-3.77,6.078c-3.796,2.331-7.388,4.978-10.738,7.914c-1.925,1.705-4.558,2.372-7.062,1.789l-15.473-3.523
	c-2.658,3.242-5.107,6.65-7.332,10.203l8.148,14.016c1.258,2.161,1.433,4.785,0.473,7.094c-1.715,4.195-3.07,8.529-4.051,12.953
	c-0.575,2.5-2.311,4.574-4.672,5.578l-14.871,6.312v12.953l14.871,6.312c2.361,1.004,4.097,3.078,4.672,5.578
	c0.981,4.425,2.336,8.758,4.051,12.953c0.96,2.308,0.785,4.933-0.473,7.094l-8.148,14.008c2.223,3.557,4.672,6.968,7.332,10.211
	l15.469-3.523c2.503-0.583,5.133,0.084,7.055,1.789c3.356,2.933,6.952,5.58,10.75,7.914c2.144,1.319,3.54,3.572,3.77,6.078
	l1.5,16.312c3.757,1.545,7.61,2.845,11.535,3.891l10.578-12.234C229.191,193.109,231.4,192.1,233.723,192.101L233.723,192.101z"/>
<path d="M144.711,479.663h-0.016l-103.804-0.211c-4.418-0.009-7.993-3.598-7.983-8.017c0.002-0.913,0.16-1.819,0.468-2.679
	l45.191-126.391c12.983-36.261,42.839-63.908,79.988-74.07l105.609-31.68c13.604-4.072,27.933,3.654,32.006,17.258
	c0.128,0.426,0.244,0.856,0.35,1.289c3.039,13.582-5.074,27.17-18.472,30.938l-49.195,15.109c-4.954,1.339-7.929,6.393-6.695,11.375
	c0.573,2.52,2.172,4.686,4.41,5.977c2.114,1.233,4.645,1.533,6.988,0.828l108.98-32.602c5.581-1.659,10.582-4.857,14.43-9.227
	l24.137-42.977c9.14-16.343,29.524-22.598,46.258-14.195c17.321,8.655,24.346,29.713,15.691,47.035
	c-0.154,0.309-0.313,0.615-0.476,0.919l-38.621,71.93c-3.665,6.646-9.711,11.657-16.922,14.023l-208.769,68.563
	c-10.635,3.619-18.405,12.81-20.203,23.898l-5.516,26.539C151.77,477.005,148.5,479.664,144.711,479.663z M52.254,463.476
	l85.953,0.172l4.125-19.82c2.832-16.82,14.695-30.715,30.863-36.148l208.844-68.586c3.352-1.096,6.166-3.418,7.879-6.5
	l38.562-71.812c4.983-9.277,1.502-20.838-7.775-25.822c-0.164-0.088-0.328-0.173-0.495-0.256h-0.004
	c-9.097-4.569-20.179-1.172-25.152,7.711l-24.531,43.68c-0.245,0.441-0.533,0.858-0.859,1.242
	c-5.909,7.025-13.748,12.164-22.547,14.781l-108.977,32.602c-6.561,1.997-13.658,1.164-19.578-2.297
	c-12.175-7.099-16.291-22.724-9.192-34.899c3.309-5.675,8.679-9.856,14.993-11.671l48.992-15.047
	c5.218-1.34,8.539-6.454,7.641-11.766c-0.627-2.628-2.31-4.88-4.652-6.227c-2.298-1.33-5.047-1.644-7.586-0.867l-105.797,31.734
	c-32.189,8.754-58.074,32.677-69.332,64.078L52.254,463.476z"/>
<g>
</g>
<g>
</g>
<g>
</g>
<g>
</g>
<g>
</g>
<g>
</g>
<g>
</g>
<g>
</g>
<g>
</g>
<g>
</g>
<g>
</g>
<g>
</g>
<g>
</g>
<g>
</g>
<g>
</g>
</svg>
