<svg height="395pt" viewBox="-34 0 395 395.94667" width="395pt" xmlns="http://www.w3.org/2000/svg"><path d="m124.464844 87.261719c-63.605469 17.460937-110.339844 75.695312-110.339844 144.84375 0 82.945312 67.242188 150.1875 150.1875 150.1875s150.1875-67.242188 150.1875-150.1875c0-67.960938-45.140625-125.378907-107.074219-143.90625" fill="#e86436"/><g fill="#5c128d"><path d="m164.3125 395.945312c-90.339844 0-163.839844-73.492187-163.839844-163.839843 0-73.585938 49.5-138.558594 120.378906-158.011719 7.261719-1.960938 14.78125 2.28125 16.78125 9.558594 1.992188 7.269531-2.28125 14.789062-9.554687 16.773437-59.050781 16.214844-100.296875 70.359375-100.296875 131.679688 0 75.28125 61.246094 136.535156 136.53125 136.535156s136.535156-61.253906 136.535156-136.535156c0-59.878907-40.027344-113.679688-97.332031-130.824219-7.226563-2.160156-11.328125-9.773438-9.167969-17 2.167969-7.214844 9.792969-11.308594 16.992188-9.160156 68.78125 20.585937 116.8125 85.132812 116.8125 156.984375 0 90.347656-73.5 163.839843-163.839844 163.839843zm0 0"/><path d="m164.3125 177.492188c-7.539062 0-13.652344-6.105469-13.652344-13.652344v-150.1875c0-7.546875 6.113282-13.652344 13.652344-13.652344s13.652344 6.105469 13.652344 13.652344v150.1875c0 7.546875-6.113282 13.652344-13.652344 13.652344zm0 0"/></g></svg>