<svg height="512pt" viewBox="0 0 512 512" width="512pt" xmlns="http://www.w3.org/2000/svg"><path d="m256 67.898438-165 95.699218v186.300782l165 94.199218 165-94.199218v-187.796876zm0 0" fill="#76e2f8"/><path d="m421 162.101562v187.796876l-165 94.199218v-376.199218zm0 0" fill="#1dc6ed"/><path d="m256.300781 137.199219-.300781.300781-105 60.601562v116.996094l105 60 105-60v-118.199218zm0 0" fill="#ff7cb9"/><path d="m361 196.898438v118.199218l-105 60v-237.597656l.300781-.300781zm0 0" fill="#fa5e97"/><path d="m60.457031 419.683594c-38.335937-45.761719-60.457031-103.886719-60.457031-163.683594 0-140.90625 115.046875-256 256-256v30c-124.328125 0-226 101.625-226 226 0 52.765625 19.632812 104.046875 53.457031 144.402344zm0 0" fill="#537983"/><path d="m256 512v-30c124.328125 0 226-101.625 226-226 0-52.765625-19.632812-104.046875-53.457031-144.402344l23-19.277344c38.335937 45.757813 60.457031 103.882813 60.457031 163.679688 0 68.113281-27.527344 132.144531-75.691406 180.308594-48.164063 48.164062-112.195313 75.691406-180.308594 75.691406zm0 0" fill="#3e5959"/><path d="m256 211c-24.902344 0-45 20.097656-45 45 0 24.898438 20.097656 45 45 45s45-20.101562 45-45c0-24.902344-20.097656-45-45-45zm0 0" fill="#e0f4ff"/><path d="m399.4375 163.773438-47.152344-141.488282 141.488282 47.152344zm0 0" fill="#3e5959"/><path d="m159.714844 489.714844-141.488282-47.152344 94.335938-94.335938zm0 0" fill="#537983"/><path d="m301 256c0 24.898438-20.097656 45-45 45v-90c24.902344 0 45 20.097656 45 45zm0 0" fill="#bbdcff"/></svg>