<?xml version="1.0" encoding="UTF-8" standalone="no"?>
<!-- Generator: Adobe Illustrator 18.0.0, SVG Export Plug-In . SVG Version: 6.00 Build 0)  -->

<svg
   xmlns:dc="http://purl.org/dc/elements/1.1/"
   xmlns:cc="http://creativecommons.org/ns#"
   xmlns:rdf="http://www.w3.org/1999/02/22-rdf-syntax-ns#"
   xmlns:svg="http://www.w3.org/2000/svg"
   xmlns="http://www.w3.org/2000/svg"
   xmlns:sodipodi="http://sodipodi.sourceforge.net/DTD/sodipodi-0.dtd"
   xmlns:inkscape="http://www.inkscape.org/namespaces/inkscape"
   version="1.1"
   id="Capa_1"
   x="0px"
   y="0px"
   viewBox="0 0 16 16"
   xml:space="preserve"
   sodipodi:docname="user.svg"
   width="16"
   height="16"
   inkscape:version="0.92.4 (5da689c313, 2019-01-14)"><metadata
   id="metadata47"><rdf:RDF><cc:Work
       rdf:about=""><dc:format>image/svg+xml</dc:format><dc:type
         rdf:resource="http://purl.org/dc/dcmitype/StillImage" /><dc:title /></cc:Work></rdf:RDF></metadata><defs
   id="defs45" /><sodipodi:namedview
   pagecolor="#ffffff"
   bordercolor="#666666"
   borderopacity="1"
   objecttolerance="10"
   gridtolerance="10"
   guidetolerance="10"
   inkscape:pageopacity="0"
   inkscape:pageshadow="2"
   inkscape:window-width="1440"
   inkscape:window-height="877"
   id="namedview43"
   showgrid="false"
   inkscape:zoom="10.788571"
   inkscape:cx="26.603735"
   inkscape:cy="13.922621"
   inkscape:window-x="-8"
   inkscape:window-y="-8"
   inkscape:window-maximized="1"
   inkscape:current-layer="Capa_1" />
<g
   id="g10"
   transform="matrix(0.04210805,0,0,0.04210805,0.79797893,0.90732254)"
   style="fill:#999999">
	<path
   d="m 175,171.173 c 38.914,0 70.463,-38.318 70.463,-85.586 C 245.463,38.318 235.105,0 175,0 c -60.105,0 -70.465,38.318 -70.465,85.587 0,47.268 31.549,85.586 70.465,85.586 z"
   id="path2"
   inkscape:connector-curvature="0"
   style="fill:#999999" />
	<path
   d="m 41.909,301.853 c -0.012,-2.882 -0.024,-0.812 0,0 z"
   id="path4"
   inkscape:connector-curvature="0"
   style="fill:#999999" />
	<path
   d="m 308.085,304.104 c 0.038,-0.789 0.013,-5.474 0,0 z"
   id="path6"
   inkscape:connector-curvature="0"
   style="fill:#999999" />
	<path
   d="M 307.935,298.397 C 306.63,216.055 295.876,192.592 213.583,177.74 c 0,0 -11.584,14.761 -38.584,14.761 -27,0 -38.586,-14.761 -38.586,-14.761 -81.395,14.69 -92.803,37.805 -94.303,117.982 -0.123,6.547 -0.18,6.891 -0.202,6.131 0.005,1.424 0.011,4.058 0.011,8.651 0,0 19.592,39.496 133.08,39.496 113.486,0 133.08,-39.496 133.08,-39.496 0,-2.951 0.002,-5.003 0.005,-6.399 -0.022,0.47 -0.066,-0.441 -0.149,-5.708 z"
   id="path8"
   inkscape:connector-curvature="0"
   style="fill:#999999" />
</g>
<g
   id="g12"
   transform="translate(0,-334)">
</g>
<g
   id="g14"
   transform="translate(0,-334)">
</g>
<g
   id="g16"
   transform="translate(0,-334)">
</g>
<g
   id="g18"
   transform="translate(0,-334)">
</g>
<g
   id="g20"
   transform="translate(0,-334)">
</g>
<g
   id="g22"
   transform="translate(0,-334)">
</g>
<g
   id="g24"
   transform="translate(0,-334)">
</g>
<g
   id="g26"
   transform="translate(0,-334)">
</g>
<g
   id="g28"
   transform="translate(0,-334)">
</g>
<g
   id="g30"
   transform="translate(0,-334)">
</g>
<g
   id="g32"
   transform="translate(0,-334)">
</g>
<g
   id="g34"
   transform="translate(0,-334)">
</g>
<g
   id="g36"
   transform="translate(0,-334)">
</g>
<g
   id="g38"
   transform="translate(0,-334)">
</g>
<g
   id="g40"
   transform="translate(0,-334)">
</g>
</svg>